<?xml version="1.0" encoding="UTF-8"?>
<svg width="128px" height="128px" viewBox="0 0 128 128" version="1.1" xmlns="http://www.w3.org/2000/svg" xmlns:xlink="http://www.w3.org/1999/xlink">
    <title>Artboard Copy 2</title>
    <g id="Artboard-Copy-2" stroke="none" stroke-width="1" fill="none" fill-rule="evenodd">
        <g id="Group" fill="#000000" fill-rule="nonzero">
            <path d="M64.3378299,10.3120845 C92.6154448,10.3120845 115.813099,32.0125147 118.165396,59.6699257 L84.5325513,59.6699257 C82.5305963,50.1587798 74.0973607,43.0003911 63.9874878,43.0003911 C53.8776149,43.0003911 45.4443793,50.1587798 43.4424242,59.6699257 L10.5102639,59.6699257 C12.8875855,32.0125147 36.0852395,10.3120845 64.3378299,10.3120845 Z M75.5738025,59.6699257 C76.0742913,61.0215096 76.3495601,62.4732108 76.3495601,64 C76.3495601,64 76.3495601,64 76.3495601,64 L76.3745846,64 C76.3745846,64 76.3745846,64 76.3745846,64 C76.3745846,65.5267892 76.0993157,66.9784904 75.598827,68.3300743 C73.8471163,73.0355886 69.3176931,76.3644896 64.0125122,76.3644896 C58.7073314,76.3644896 54.1779081,73.0105592 52.4261975,68.3300743 C51.9257087,66.9784904 51.6504399,65.5267892 51.6504399,64 C51.6504399,64 51.6504399,64 51.6504399,64 L51.6254154,64 C51.6254154,64 51.6254154,64 51.6254154,64 C51.6254154,62.4732108 51.9006843,61.0215096 52.401173,59.6699257 C54.1528837,54.9644114 58.6823069,51.6355104 63.9874878,51.6355104 C69.2926686,51.6355104 73.8220919,54.9894408 75.5738025,59.6699257 Z M63.6371457,117.712945 C35.3595308,117.712945 12.1618768,96.0125147 9.80957967,68.3551036 L43.4424242,68.3551036 C45.4443793,77.8662495 53.8776149,85.0246382 63.9874878,85.0246382 C74.0973607,85.0246382 82.5305963,77.8662495 84.5325513,68.3551036 L117.489736,68.3551036 C115.112414,95.9874853 91.9147605,117.712945 63.6371457,117.712945 Z M63.9874878,0 C28.6529814,0 0,28.6585843 0,64 C0,99.3414157 28.6529814,128 63.9874878,128 C99.3219941,128 128,99.3664451 128,64 C128,28.6335549 99.3470186,0 63.9874878,0 Z" id="Line"></path>
        </g>
    </g>
</svg>