<?xml version="1.0" encoding="UTF-8"?>
<svg width="320px" height="320px" viewBox="0 0 320 320" version="1.1" xmlns="http://www.w3.org/2000/svg" xmlns:xlink="http://www.w3.org/1999/xlink">
    <title>Artboard</title>
    <g id="Artboard" stroke="none" stroke-width="1" fill="none" fill-rule="evenodd">
        <rect fill="#FFAEAE" x="0" y="0" width="320" height="320"></rect>
        <g id="Group-Copy" transform="translate(42.000000, 42.000000)" fill-rule="nonzero">
            <g id="Colours" transform="translate(19.000000, 20.000000)">
                <path d="M99.4770261,137.723077 C80.9141076,137.723077 65.4296929,124.523077 61.7538675,106.984615 L0,106.984615 C4.36504272,157.984615 46.9586701,198 98.8337566,198 C150.708843,198 193.348418,157.984615 197.667513,106.984615 L137.200185,106.984615 C133.524359,124.569231 118.039945,137.723077 99.4770261,137.723077 Z" id="Down" fill="#FFFFFF"></path>
                <path d="M121.531979,195.415385 C162.701224,185.723077 193.991688,150.323077 197.667513,106.984615 L173.31517,106.984615 C170.879935,146.307692 150.341261,179.630769 121.531979,195.415385 Z" id="Shadow_Down" fill="#DFDFDF"></path>
                <path d="M122.221196,99 L122.221196,99 C122.175248,99 122.175248,99 122.221196,99 C122.175248,96.1846154 121.669822,93.5076923 120.750866,91.0153846 C117.534519,82.3384615 109.217964,76.2 99.4770261,76.2 C89.7360887,76.2 81.4195336,82.3846154 78.2031863,91.0153846 C77.28423,93.5076923 76.778804,96.1846154 76.778804,99 C76.778804,99 76.778804,99 76.778804,99 L76.8247518,99 C76.8247518,99 76.8247518,99 76.8247518,99 C76.8247518,101.815385 77.3301778,104.492308 78.2491341,106.984615 C81.4654814,115.661538 89.7820365,121.8 99.5229739,121.8 C109.263911,121.8 117.580466,115.615385 120.796814,106.984615 C121.71577,104.538462 122.221196,101.815385 122.221196,99 C122.221196,99 122.221196,99 122.221196,99 Z" id="Center" fill="#FFFFFF"></path>
                <path d="M99.5229739,60.3230769 C118.085892,60.3230769 133.570307,73.5230769 137.246133,91.0615385 L199,91.0615385 C194.634957,40.0153846 152.04133,0 100.120296,0 C48.1992611,0 5.65158162,40.0153846 1.28653891,91.0153846 L61.7998153,91.0153846 C65.4756407,73.4769231 80.9600554,60.3230769 99.5229739,60.3230769 Z" id="Up" fill="#FF1C1C"></path>
                <path d="M173.31517,91.0153846 L198.954052,91.0153846 C195.186331,46.9384615 162.839067,11.0307692 120.613022,2.12307692 C149.92773,17.6769231 170.833988,51.3230769 173.31517,91.0153846 Z" id="Shadow_Up" fill="#DF1818"></path>
            </g>
            <path d="M118.622874,19.0129057 C170.759726,19.0129057 213.530401,59.0230739 217.867449,110.016425 L155.856891,110.016425 C152.165787,92.4802503 136.617009,79.2819711 117.976931,79.2819711 C99.3368524,79.2819711 83.7880743,92.4802503 80.0969697,110.016425 L19.3782991,110.016425 C23.7614858,59.0230739 66.5321603,19.0129057 118.622874,19.0129057 Z M139.339198,110.016425 C140.261975,112.508408 140.769501,115.184982 140.769501,118 C140.769501,118 140.769501,118 140.769501,118 L140.81564,118 C140.81564,118 140.81564,118 140.81564,118 C140.81564,120.815018 140.308113,123.491592 139.385337,125.983575 C136.155621,134.659366 127.804497,140.797028 118.023069,140.797028 C108.241642,140.797028 99.8905181,134.613219 96.6608016,125.983575 C95.7380254,123.491592 95.2304985,120.815018 95.2304985,118 C95.2304985,118 95.2304985,118 95.2304985,118 L95.1843597,118 C95.1843597,118 95.1843597,118 95.1843597,118 C95.1843597,115.184982 95.6918866,112.508408 96.6146628,110.016425 C99.8443793,101.340634 108.195503,95.2029722 117.976931,95.2029722 C127.758358,95.2029722 136.109482,101.386781 139.339198,110.016425 Z M117.330987,217.033242 C65.1941349,217.033242 22.4234604,177.023074 18.0864125,126.029722 L80.0969697,126.029722 C83.7880743,143.565898 99.3368524,156.764177 117.976931,156.764177 C136.617009,156.764177 152.165787,143.565898 155.856891,126.029722 L216.621701,126.029722 C212.238514,176.976926 169.46784,217.033242 117.330987,217.033242 Z M117.976931,0 C52.8289345,0 0,52.8392648 0,118 C0,183.160735 52.8289345,236 117.976931,236 C183.124927,236 236,183.206883 236,118 C236,52.7931169 183.171065,0 117.976931,0 Z" id="Line" fill="#000000"></path>
        </g>
    </g>
</svg>