<?xml version="1.0" encoding="UTF-8"?>
<svg width="128px" height="128px" viewBox="0 0 128 128" version="1.1" xmlns="http://www.w3.org/2000/svg" xmlns:xlink="http://www.w3.org/1999/xlink">
    <title>Artboard Copy</title>
    <g id="Artboard-Copy" stroke="none" stroke-width="1" fill="none" fill-rule="evenodd">
        <rect fill="#FFAEAE" x="0" y="0" width="128" height="128"></rect>
        <g id="Group" transform="translate(11.000000, 11.000000)" fill-rule="nonzero">
            <g id="Colours" transform="translate(9.000000, 9.000000)">
                <path d="M44.4897252,61.9058275 C36.1877165,61.9058275 29.262526,55.9724942 27.6185638,48.0890443 L0,48.0890443 C1.95220503,71.0132867 21.0016163,89 44.2020319,89 C67.4024475,89 86.4724082,71.0132867 88.4040637,48.0890443 L61.3608866,48.0890443 C59.7169245,55.9932401 52.791734,61.9058275 44.4897252,61.9058275 Z" id="Down" fill="#FFFFFF"></path>
                <path d="M54.353498,87.8382284 C72.7658739,83.4815851 86.7601016,67.5694639 88.4040637,48.0890443 L77.5128146,48.0890443 C76.4236897,65.7645688 67.2380513,80.7431235 54.353498,87.8382284 Z" id="Shadow_Down" fill="#DFDFDF"></path>
                <path d="M54.6617409,44.5 L54.6617409,44.5 C54.6411914,44.5 54.6411914,44.5 54.6617409,44.5 C54.6411914,43.2344988 54.4151466,42.0312354 54.0041561,40.9109557 C52.5656892,37.0107226 48.8462249,34.2515152 44.4897252,34.2515152 C40.1332256,34.2515152 36.4137613,37.0314685 34.9752944,40.9109557 C34.5643039,42.0312354 34.3382591,43.2344988 34.3382591,44.5 C34.3382591,44.5 34.3382591,44.5 34.3382591,44.5 L34.3588086,44.5 C34.3588086,44.5 34.3588086,44.5 34.3588086,44.5 C34.3588086,45.7655012 34.5848534,46.9687646 34.9958439,48.0890443 C36.4343108,51.9892774 40.1537751,54.7484848 44.5102748,54.7484848 C48.8667744,54.7484848 52.5862387,51.9685315 54.0247056,48.0890443 C54.4356961,46.9895105 54.6617409,45.7655012 54.6617409,44.5 C54.6617409,44.5 54.6617409,44.5 54.6617409,44.5 Z" id="Center" fill="#FFFFFF"></path>
                <path d="M44.5102748,27.1149184 C52.8122835,27.1149184 59.737474,33.0482517 61.3814362,40.9317016 L89,40.9317016 C87.047795,17.9867133 67.9983837,0 44.7774186,0 C21.5564535,0 2.52759178,17.9867133 0.575386747,40.9109557 L27.6391134,40.9109557 C29.2830755,33.0275058 36.208266,27.1149184 44.5102748,27.1149184 Z" id="Up" fill="#FF1C1C"></path>
                <path d="M77.5128146,40.9109557 L88.9794505,40.9109557 C87.2943893,21.0986014 72.8275225,4.95827506 53.9425075,0.954312354 C67.0531055,7.94568765 76.4031402,23.0694639 77.5128146,40.9109557 Z" id="Shadow_Up" fill="#DF1818"></path>
            </g>
            <path d="M53.2797654,8.53969496 C76.6971652,8.53969496 95.9077224,26.5103637 97.8557185,49.4141572 L70.0035191,49.4141572 C68.34565,41.5377395 61.3618768,35.6096989 52.9896383,35.6096989 C44.6173998,35.6096989 37.6336266,41.5377395 35.9757576,49.4141572 L8.70381232,49.4141572 C10.6725318,26.5103637 29.883089,8.53969496 53.2797654,8.53969496 Z M62.5845552,49.4141572 C62.9990225,50.5334376 63.2269795,51.7356277 63.2269795,53 C63.2269795,53 63.2269795,53 63.2269795,53 L63.2477028,53 C63.2477028,53 63.2477028,53 63.2477028,53 C63.2477028,54.2643723 63.0197458,55.4665624 62.6052786,56.5858428 C61.1546432,60.4825968 57.4037146,63.239343 53.0103617,63.239343 C48.6170088,63.239343 44.8660802,60.4618694 43.4154448,56.5858428 C43.0009775,55.4665624 42.7730205,54.2643723 42.7730205,53 C42.7730205,53 42.7730205,53 42.7730205,53 L42.7522972,53 C42.7522972,53 42.7522972,53 42.7522972,53 C42.7522972,51.7356277 42.9802542,50.5334376 43.3947214,49.4141572 C44.8453568,45.5174032 48.5962854,42.760657 52.9896383,42.760657 C57.3829912,42.760657 61.1339198,45.5381306 62.5845552,49.4141572 Z M52.6995112,97.4810325 C29.2821114,97.4810325 10.0715543,79.5103637 8.12355816,56.6065702 L35.9757576,56.6065702 C37.6336266,64.4829879 44.6173998,70.4110285 52.9896383,70.4110285 C61.3618768,70.4110285 68.34565,64.4829879 70.0035191,56.6065702 L97.2961877,56.6065702 C95.3274682,79.4896363 76.116911,97.4810325 52.6995112,97.4810325 Z M52.9896383,0 C23.7282502,0 0,23.7328901 0,53 C0,82.2671099 23.7282502,106 52.9896383,106 C82.2510264,106 106,82.2878373 106,53 C106,23.7121627 82.2717498,0 52.9896383,0 Z" id="Line" fill="#000000"></path>
        </g>
    </g>
</svg>